<svg width="234" height="300" viewBox="0 0 234 300" fill="none" xmlns="http://www.w3.org/2000/svg">
<g clip-path="url(#clip0_3_282)">
<path d="M17.0171 47.7393C17.3187 71.8374 32.073 86.1414 54.9645 90.3616C75.7443 94.4269 97.58 93.9743 118.959 96.3841C150.127 99.5602 193.496 104.066 211.113 134.036C216.983 144.128 217.738 155.573 218.039 166.717H217.285C217.666 155.834 214.08 145.184 207.195 136.748C193.04 120.331 170.002 119.577 149.674 118.088C109.317 114.773 27.1033 115.075 17.3148 64.4928C16.4745 59.0113 16.0763 53.4712 16.1239 47.9258L17.029 47.775L17.0171 47.7393Z" fill="white"/>
<path d="M125.735 0V211.746H108.567V49.0975C108.768 42.9038 107.734 36.732 105.525 30.9422C103.317 25.1523 99.9777 19.8601 95.7029 15.3744C91.428 10.8886 86.303 7.29892 80.6267 4.81473C74.9504 2.33053 68.8363 1.00151 62.6411 0.905169C50.3539 1.14113 38.6591 6.23021 30.1108 15.0611C21.5625 23.8919 16.8552 35.747 17.0169 48.0375V211.746H0.150879V0" fill="white"/>
<path d="M234 0V211.746H171.51V210.841C183.798 210.605 195.494 205.515 204.043 196.682C212.591 187.85 217.298 175.992 217.134 163.701V0" fill="white"/>
<path d="M0 282.984H6.17241C6.05173 283.782 6.00126 284.588 6.02158 285.394C6.02158 293.378 10.2371 296.538 17.9298 296.538C26.0591 296.538 31.0288 292.322 31.0288 285.847C31.0288 268.978 1.65524 277.414 1.65524 256.179C1.93671 251.865 3.91892 247.84 7.1663 244.987C10.4137 242.134 14.6606 240.688 18.9737 240.965C27.8572 240.965 36.1414 246.523 36.1414 256.175H30.5644C30.6856 255.276 30.7361 254.369 30.7152 253.463C30.7152 247.44 26.6505 244.427 20.3273 244.427C13.4007 244.427 8.73268 248.342 8.73268 254.67C8.73268 271.086 37.9435 263.555 37.9435 283.885C37.9435 293.223 29.8142 300 18.9698 300C9.18519 300 0 294.561 0 282.984Z" fill="white"/>
<path d="M94.4121 242.771H102.093V267.783H131.466V242.771H139.008V300H131.466V270.332H102.093V300H94.4121V242.771Z" fill="white"/>
<path d="M189.276 241.867H196.957V266.878H226.331V241.867H233.873V299.095H226.331V269.427H196.957V299.095H189.276V241.867Z" fill="white"/>
</g>
<defs>
<clipPath id="clip0_3_282">
<rect width="234" height="300" fill="white"/>
</clipPath>
</defs>
</svg>
